<svg width="21" height="16" viewBox="0 0 21 16" fill="none" xmlns="http://www.w3.org/2000/svg">
<path d="M4.4 15.52C6.24 15.52 7.56 14.24 7.56 12.16C7.56 10.28 6.12 9.12 4.4 9.12C3.52 9.12 2.76 9.52 2.08 10.04L4.24 12.92L3.96 9.24C3.96 6.56 5.24 4.84 7.88 3.48L6.52 0.839998C2.48 2.92 0.48 6 0.48 10.08C0.48 13.56 1.84 15.52 4.4 15.52ZM17.4078 15.52C19.2478 15.52 20.5678 14.24 20.5678 12.16C20.5678 10.28 19.1278 9.12 17.4078 9.12C16.5278 9.12 15.7678 9.52 15.0878 10.04L17.2478 12.92L16.9678 9.24C16.9678 6.56 18.2478 4.84 20.8878 3.48L19.5278 0.839998C15.4878 2.92 13.4878 6 13.4878 10.08C13.4878 13.56 14.8478 15.52 17.4078 15.52Z" fill="white"/>
</svg>
