<svg width="22" height="25" viewBox="0 0 22 25" fill="none" xmlns="http://www.w3.org/2000/svg">
<path fill-rule="evenodd" clip-rule="evenodd" d="M18.1739 6.65217C19.7347 6.65217 21 5.38689 21 3.82609C21 2.26528 19.7347 1 18.1739 1C16.6131 1 15.3478 2.26528 15.3478 3.82609C15.3478 5.38689 16.6131 6.65217 18.1739 6.65217ZM18.1739 7.65217C20.287 7.65217 22 5.93918 22 3.82609C22 1.713 20.287 0 18.1739 0C16.0608 0 14.3478 1.713 14.3478 3.82609C14.3478 4.24329 14.4146 4.6449 14.5381 5.02081L6.35729 9.56569C5.68276 8.97017 4.79662 8.6088 3.82609 8.6088C1.713 8.6088 0 10.3218 0 12.4349C0 14.548 1.713 16.261 3.82609 16.261C4.68751 16.261 5.48244 15.9763 6.12194 15.4959L14.5809 19.7254C14.4301 20.1363 14.3478 20.5802 14.3478 21.0434C14.3478 23.1565 16.0608 24.8695 18.1739 24.8695C20.287 24.8695 22 23.1565 22 21.0434C22 18.9303 20.287 17.2173 18.1739 17.2173C16.8813 17.2173 15.7384 17.8583 15.0458 18.8398L6.87079 14.7523C7.36105 14.1091 7.65217 13.306 7.65217 12.4349C7.65217 11.6606 7.42216 10.94 7.02674 10.3377L14.9732 5.92306C15.6568 6.96448 16.8351 7.65217 18.1739 7.65217ZM18.1739 23.8695C19.7347 23.8695 21 22.6042 21 21.0434C21 19.4826 19.7347 18.2173 18.1739 18.2173C16.6131 18.2173 15.3478 19.4826 15.3478 21.0434C15.3478 22.6042 16.6131 23.8695 18.1739 23.8695ZM6.65217 12.4349C6.65217 13.9957 5.38689 15.261 3.82609 15.261C2.26528 15.261 1 13.9957 1 12.4349C1 10.8741 2.26528 9.6088 3.82609 9.6088C5.38689 9.6088 6.65217 10.8741 6.65217 12.4349Z" fill="black"/>
</svg>
