<svg width="18" height="17" viewBox="0 0 18 17" fill="none" xmlns="http://www.w3.org/2000/svg">
<path fill-rule="evenodd" clip-rule="evenodd" d="M11.6197 0.731393C12.5971 -0.243798 14.1818 -0.243797 15.1593 0.731393L16.2934 1.86294C17.2708 2.83813 17.2708 4.41923 16.2934 5.39442L5.68117 15.9823H16.5297C16.8058 15.9823 17.0297 16.2062 17.0297 16.4823C17.0297 16.7585 16.8058 16.9823 16.5297 16.9823H3.79744C3.74419 16.9858 3.69069 16.9875 3.63701 16.9875H0.500573H0V16.488V13.3588C0 12.6965 0.263694 12.0614 0.733071 11.5931L11.6197 0.731393ZM3.77439 15.9823H3.50926C3.48222 15.9823 3.45568 15.9845 3.4298 15.9886L1.00115 15.9886L1.00115 13.3588C1.00115 12.9614 1.15936 12.5803 1.44099 12.2994L10.4151 3.34576L13.673 6.59619L4.69888 15.5498C4.44982 15.7983 4.12228 15.9505 3.77439 15.9823ZM14.4513 1.43769C13.8649 0.852574 12.914 0.852574 12.3276 1.43769L11.1231 2.63946L14.3809 5.88989L15.5855 4.68812C16.1719 4.10301 16.1719 3.15435 15.5855 2.56923L14.4513 1.43769Z" fill="white"/>
</svg>
