<svg width="24" height="25" viewBox="0 0 24 25" fill="none" xmlns="http://www.w3.org/2000/svg">
<path d="M1.58579 10.4142L10.5858 1.41421C11.3668 0.633165 12.6332 0.633166 13.4142 1.41421L22.4142 10.4142C22.7893 10.7893 23 11.298 23 11.8284V21.8333C23 22.9379 22.1046 23.8333 21 23.8333H16.75C15.6454 23.8333 14.75 22.9379 14.75 21.8333V19.4167C14.75 18.3121 13.8546 17.4167 12.75 17.4167H10.7917C9.6871 17.4167 8.79167 18.3121 8.79167 19.4167V21.8333C8.79167 22.9379 7.89624 23.8333 6.79167 23.8333H3C1.89543 23.8333 1 22.9379 1 21.8333V11.8284C1 11.298 1.21071 10.7893 1.58579 10.4142Z" stroke="black"/>
</svg>
