<svg width="26" height="27" viewBox="0 0 26 27" fill="none" xmlns="http://www.w3.org/2000/svg">
<path d="M1.58579 11.4142L11.5858 1.41421C12.3668 0.633165 13.6332 0.633165 14.4142 1.41421L24.4142 11.4142C24.7893 11.7893 25 12.298 25 12.8284V24C25 25.1046 24.1046 26 23 26H18C16.8954 26 16 25.1046 16 24V21C16 19.8954 15.1046 19 14 19H11.5C10.3954 19 9.5 19.8954 9.5 21V24C9.5 25.1046 8.60457 26 7.5 26H3C1.89543 26 1 25.1046 1 24V12.8284C1 12.298 1.21071 11.7893 1.58579 11.4142Z" stroke="black"/>
</svg>
