<svg width="22" height="23" viewBox="0 0 22 23" fill="none" xmlns="http://www.w3.org/2000/svg">
<path fill-rule="evenodd" clip-rule="evenodd" d="M15.6633 5.83673C15.6633 8.50799 13.4978 10.6735 10.8265 10.6735C8.15528 10.6735 5.9898 8.50799 5.9898 5.83673C5.9898 3.16548 8.15528 1 10.8265 1C13.4978 1 15.6633 3.16548 15.6633 5.83673ZM16.6633 5.83673C16.6633 9.06027 14.0501 11.6735 10.8265 11.6735C7.60299 11.6735 4.9898 9.06027 4.9898 5.83673C4.9898 2.6132 7.60299 0 10.8265 0C14.0501 0 16.6633 2.6132 16.6633 5.83673ZM2.5 12.9694C1.11929 12.9694 0 14.0887 0 15.4694V19.551C0 20.9317 1.11929 22.051 2.5 22.051H19.1531C20.5338 22.051 21.6531 20.9317 21.6531 19.551V15.4694C21.6531 14.0887 20.5338 12.9694 19.1531 12.9694H2.5ZM1 15.4694C1 14.641 1.67157 13.9694 2.5 13.9694H19.1531C19.9815 13.9694 20.6531 14.641 20.6531 15.4694V19.551C20.6531 20.3794 19.9815 21.051 19.1531 21.051H2.5C1.67157 21.051 1 20.3794 1 19.551V15.4694Z" fill="black"/>
</svg>
