<svg width="73" height="24" viewBox="0 0 73 24" fill="none" xmlns="http://www.w3.org/2000/svg">
<path d="M0.152 8.648C0.152 6.2 0.832 4.16 2.192 2.528C3.568 0.895999 5.2 0.079999 7.088 0.079999C8.976 0.079999 10.568 0.919999 11.864 2.6C13.176 4.264 13.832 6.256 13.832 8.576C13.832 11.136 13.192 13.2 11.912 14.768C10.648 16.32 9.04 17.104 7.088 17.12C5.2 17.12 3.568 16.328 2.192 14.744C0.832 13.16 0.152 11.128 0.152 8.648ZM1.928 8.672C1.928 10.496 2.432 12.064 3.44 13.376C4.464 14.688 5.68 15.344 7.088 15.344C8.48 15.344 9.656 14.688 10.616 13.376C11.576 12.048 12.056 10.464 12.056 8.624C12.056 6.864 11.568 5.296 10.592 3.92C9.632 2.544 8.464 1.856 7.088 1.856C5.68 1.856 4.464 2.552 3.44 3.944C2.432 5.336 1.928 6.912 1.928 8.672ZM16.4473 16.328V5.696C16.4473 5.264 16.7513 5.048 17.3593 5.048C17.5993 5.048 17.7993 5.104 17.9593 5.216C18.1353 5.328 18.2233 5.488 18.2233 5.696V8.696C18.8313 7.384 19.5033 6.392 20.2393 5.72C20.9913 5.048 21.9833 4.712 23.2153 4.712C24.0793 4.712 24.9513 4.824 25.8313 5.048C26.2953 5.272 26.5273 5.576 26.5273 5.96C26.5273 6.232 26.4713 6.424 26.3593 6.536C26.2473 6.648 26.0633 6.72 25.8073 6.752C24.9913 6.56 24.3273 6.464 23.8153 6.464C22.6313 6.464 21.5513 7.048 20.5753 8.216C19.5993 9.384 18.8153 10.904 18.2233 12.776V16.328C18.2233 16.536 18.1353 16.704 17.9593 16.832C17.7833 16.944 17.5753 17 17.3353 17C16.7433 17 16.4473 16.776 16.4473 16.328ZM26.7948 12.632C26.7948 10.488 27.6348 8.64 29.3148 7.088C30.9948 5.536 32.8988 4.76 35.0268 4.76C36.4828 4.76 37.7228 5.312 38.7468 6.416C39.7708 7.52 40.2828 8.776 40.2828 10.184L40.2588 16.472C40.2588 16.68 40.1548 16.848 39.9468 16.976C39.7548 17.088 39.5388 17.144 39.2988 17.144C38.7708 17.144 38.5068 16.92 38.5068 16.472V12.416C37.2108 14.096 35.9708 15.312 34.7868 16.064C33.6188 16.816 32.4108 17.192 31.1628 17.192C30.0108 17.192 28.9948 16.728 28.1148 15.8C27.2348 14.856 26.7948 13.8 26.7948 12.632ZM28.5228 12.68C28.5228 13.592 28.8428 14.288 29.4828 14.768C30.1228 15.232 30.8028 15.464 31.5228 15.464C32.3548 15.464 33.3068 15.056 34.3788 14.24C35.4508 13.408 36.3388 12.488 37.0428 11.48C37.7628 10.456 38.1228 9.656 38.1228 9.08C38.1228 8.6 37.9788 8.176 37.6908 7.808C37.4188 7.424 37.0748 7.144 36.6588 6.968C36.2588 6.792 35.8908 6.664 35.5548 6.584C35.2188 6.488 34.9388 6.44 34.7148 6.44C33.1468 6.44 31.7228 7.072 30.4428 8.336C29.1628 9.584 28.5228 11.032 28.5228 12.68ZM42.9791 16.376V5.648C42.9791 5.44 43.0591 5.28 43.2191 5.168C43.3951 5.056 43.6031 5 43.8431 5C44.4511 5 44.7551 5.216 44.7551 5.648V7.544C45.5551 6.68 46.5231 6 47.6591 5.504C48.7951 4.992 49.9471 4.736 51.1151 4.736C52.6191 4.736 53.8751 5.208 54.8831 6.152C55.9071 7.08 56.4191 8.296 56.4191 9.8C56.4191 9.944 56.4111 10.68 56.3951 12.008C56.3951 13.32 56.3951 14.76 56.3951 16.328C56.3951 16.536 56.3071 16.704 56.1311 16.832C55.9551 16.944 55.7471 17 55.5071 17C54.9151 17 54.6191 16.776 54.6191 16.328V10.016C54.6191 8.88 54.2111 8.008 53.3951 7.4C52.5951 6.792 51.7631 6.488 50.8991 6.488C49.7311 6.488 48.5311 6.88 47.2991 7.664C46.0831 8.432 45.2351 9.408 44.7551 10.592V16.376C44.7551 16.808 44.4511 17.024 43.8431 17.024C43.6031 17.024 43.3951 16.968 43.2191 16.856C43.0591 16.744 42.9791 16.584 42.9791 16.376ZM58.5995 12.632C58.5995 10.488 59.4395 8.64 61.1195 7.088C62.7995 5.536 64.7035 4.76 66.8315 4.76C68.1595 4.76 69.3195 5.232 70.3115 6.176V5.624C70.3115 5.192 70.6155 4.976 71.2235 4.976C71.4635 4.976 71.6635 5.032 71.8235 5.144C71.9995 5.256 72.0875 5.416 72.0875 5.624V17.12C72.0875 18.992 71.4795 20.456 70.2635 21.512C69.0475 22.584 67.6315 23.12 66.0155 23.12C64.7355 23.12 63.6635 22.896 62.7995 22.448C61.9355 22 61.4955 21.256 61.4795 20.216C61.4795 19.96 61.5595 19.76 61.7195 19.616C61.8795 19.488 62.0795 19.424 62.3195 19.424C62.5755 19.424 62.7915 19.496 62.9675 19.64C63.1595 19.784 63.2555 19.968 63.2555 20.192C63.2555 20.464 63.3275 20.68 63.4715 20.84C63.6315 21.016 63.8795 21.136 64.2155 21.2C64.5515 21.264 64.8395 21.304 65.0795 21.32C65.3355 21.336 65.6875 21.344 66.1355 21.344C67.2715 21.344 68.2475 21 69.0635 20.312C69.8955 19.624 70.3115 18.616 70.3115 17.288V12.416C69.0155 14.096 67.7755 15.312 66.5915 16.064C65.4235 16.816 64.2155 17.192 62.9675 17.192C61.8155 17.192 60.7995 16.728 59.9195 15.8C59.0395 14.856 58.5995 13.8 58.5995 12.632ZM60.3275 12.68C60.3275 13.592 60.6475 14.288 61.2875 14.768C61.9275 15.232 62.6075 15.464 63.3275 15.464C64.1595 15.464 65.1115 15.056 66.1835 14.24C67.2555 13.408 68.1435 12.488 68.8475 11.48C69.5675 10.456 69.9275 9.656 69.9275 9.08C69.9275 8.6 69.7835 8.176 69.4955 7.808C69.2235 7.424 68.8795 7.144 68.4635 6.968C68.0635 6.792 67.6955 6.664 67.3595 6.584C67.0235 6.488 66.7435 6.44 66.5195 6.44C64.9515 6.44 63.5275 7.072 62.2475 8.336C60.9675 9.584 60.3275 11.032 60.3275 12.68Z" fill="#A8A8A8"/>
</svg>
