<svg width="25" height="25" viewBox="0 0 25 25" fill="none" xmlns="http://www.w3.org/2000/svg">
<path fill-rule="evenodd" clip-rule="evenodd" d="M18 6.5C18 9.53757 15.5376 12 12.5 12C9.46243 12 7 9.53757 7 6.5C7 3.46243 9.46243 1 12.5 1C15.5376 1 18 3.46243 18 6.5ZM19 6.5C19 10.0899 16.0899 13 12.5 13C8.91015 13 6 10.0899 6 6.5C6 2.91015 8.91015 0 12.5 0C16.0899 0 19 2.91015 19 6.5ZM3 14.5C1.61929 14.5 0.5 15.6193 0.5 17V22C0.5 23.3807 1.61929 24.5 3 24.5H22C23.3807 24.5 24.5 23.3807 24.5 22V17C24.5 15.6193 23.3807 14.5 22 14.5H3ZM1.5 17C1.5 16.1716 2.17157 15.5 3 15.5H22C22.8284 15.5 23.5 16.1716 23.5 17V22C23.5 22.8284 22.8284 23.5 22 23.5H3C2.17157 23.5 1.5 22.8284 1.5 22V17Z" fill="black"/>
</svg>
