<svg width="46" height="45" viewBox="0 0 46 45" fill="none" xmlns="http://www.w3.org/2000/svg">
<path d="M0.5 22.5C0.5 10.3497 10.3497 0.5 22.5 0.5C34.6503 0.5 44.5 10.3497 44.5 22.5C44.5 34.6503 34.6503 44.5 22.5 44.5C10.3497 44.5 0.5 34.6503 0.5 22.5Z" fill="#FF3D00" stroke="#FF3D00"/>
<path d="M21 11.5C21 10.6716 21.6716 10 22.5 10C23.3284 10 24 10.6716 24 11.5V31.5C24 32.3284 23.3284 33 22.5 33C21.6716 33 21 32.3284 21 31.5V11.5Z" fill="white"/>
<path d="M12.5 23C11.6716 23 11 22.3284 11 21.5C11 20.6716 11.6716 20 12.5 20L32.5 20C33.3284 20 34 20.6716 34 21.5C34 22.3284 33.3284 23 32.5 23L12.5 23Z" fill="white"/>
</svg>
