<svg width="46" height="45" viewBox="0 0 46 45" fill="none" xmlns="http://www.w3.org/2000/svg">
<path d="M0.5 22.5C0.5 10.3497 10.3497 0.5 22.5 0.5C34.6503 0.5 44.5 10.3497 44.5 22.5C44.5 34.6503 34.6503 44.5 22.5 44.5C10.3497 44.5 0.5 34.6503 0.5 22.5Z" fill="#FF3D00" stroke="#FF3D00"/>
<path d="M28.7174 13.8683C29.3032 13.2825 30.2529 13.2825 30.8387 13.8683C31.4245 14.4541 31.4245 15.4038 30.8387 15.9896L16.6966 30.1317C16.1108 30.7175 15.1611 30.7175 14.5753 30.1317C13.9895 29.5459 13.9895 28.5962 14.5753 28.0104L28.7174 13.8683Z" fill="white"/>
<path d="M14.5753 15.9896C13.9895 15.4038 13.9895 14.4541 14.5753 13.8683C15.1611 13.2825 16.1108 13.2825 16.6966 13.8683L30.8388 28.0104C31.4246 28.5962 31.4246 29.546 30.8388 30.1318C30.253 30.7175 29.3032 30.7175 28.7174 30.1318L14.5753 15.9896Z" fill="white"/>
</svg>
